<?xml version="1.0" encoding="UTF-8"?>
<svg viewBox="0 0 453.54 453.54" xmlns="http://www.w3.org/2000/svg">
 <g stroke-linecap="round" stroke-width="7.087">
  <path d="m425.2 212.6a212.59 212.6 0 1 1 -425.18 0 212.59 212.6 0 1 1 425.18 0z" fill="none"/>
  <g fill="#ff7f00">
   <path d="m255.12 212.6a42.518 42.519 0 1 1 -85.036 0 42.518 42.519 0 1 1 85.036 0z"/>
   <path d="m106.42 28.638c-63.528 36.776-106.42 105.33-106.42 183.97h148.83c0-23.589 12.857-44.166 31.911-55.2l-74.322-128.77zm212.39 0l-74.322 128.77c19.039 11.038 31.874 31.622 31.874 55.2h148.83c0-78.631-42.866-147.19-106.38-183.97zm-74.36 239.14c-9.3841 5.4339-20.22 8.5874-31.836 8.5874-11.61 0-22.494-3.122-31.874-8.5499l-74.322 128.74c31.275 18.105 67.483 28.65 106.2 28.65 38.71 0 74.885-10.548 106.16-28.65l-74.322-128.77z"/>
  </g>
 </g>
</svg>
